PathFileType	4	(X/Y/Z)	Patient4_TMGait_0pt7_02_left_11.trc.trc
DataRate	CameraRate	NumFrames	NumMarkers	Units	OrigDataRate	OrigDataStartFrame	OrigNumFrames
85.889570552147	85.889570552147	6	33	mm	85.889570552147	124	       141
Frame#	Time	Sacral			L.Shoulder			Chest			R.Shoulder			Neck			R.ASIS			L.ASIS			R.Thigh.Superior			R.Thigh.Lateral			R.Thigh.Inferior			R.Patella			L.Thigh.Superior			L.Thigh.Lateral			L.Thigh.Inferior			L.Patella			L.Shank.Superior			L.Shank.Lateral			L.Shank.Inferior			R.Shank.Superior			R.Shank.Lateral			R.Shank.Inferior			R.Heel			R.Midfoot.Superior			R.Midfoot.Lateral			R.Toe			L.Heel			L.Midfoot.Lateral			L.Midfoot.Superior			L.Toe			L.Elbow			L.Wrist			R.Elbow			R.Wrist			
		X1	Y1	Z1	X2	Y2	Z2	X3	Y3	Z3	X4	Y4	Z4	X5	Y5	Z5	X6	Y6	Z6	X7	Y7	Z7	X8	Y8	Z8	X9	Y9	Z9	X10	Y10	Z10	X11	Y11	Z11	X12	Y12	Z12	X13	Y13	Z13	X14	Y14	Z14	X15	Y15	Z15	X16	Y16	Z16	X17	Y17	Z17	X18	Y18	Z18	X19	Y19	Z19	X20	Y20	Z20	X21	Y21	Z21	X22	Y22	Z22	X23	Y23	Z23	X24	Y24	Z24	X25	Y25	Z25	X26	Y26	Z26	X27	Y27	Z27	X28	Y28	Z28	X29	Y29	Z29	X30	Y30	Z30	X31	Y31	Z31	X32	Y32	Z32	X33	Y33	Z33	

124	13.652071428571	762.149367479103	1001.226005060877	505.163674511016	925.606293323360	1420.703904089540	306.014552901996	1052.149328298113	1343.651712601312	446.907365024351	1003.402569321935	1425.056771341968	630.498816217005	955.869034520253	1479.566884078757	457.847909610391	992.554719322707	927.048087568744	600.891360763792	957.216776576520	944.632896793759	328.258319874039	982.552368409485	714.497259176634	574.480167106880	876.110001957898	623.674140122301	638.398303266743	931.159884441788	556.866539284263	555.895688859801	908.578424275040	471.042020508446	559.619936356096	1034.933144360159	768.444632317808	356.747218392910	982.286218191138	635.261275084948	285.680425603519	1090.056589313252	580.864074619919	342.512573097777	1116.285363367805	515.437503866080	341.925408935005	1101.331499014050	441.521261362587	333.566860370937	1034.525811903437	309.665203185149	289.428992886633	1125.296350566650	213.629788932020	343.147304277081	865.989860113592	388.569795987355	567.447380895189	779.443338151149	298.544023479442	632.527703363678	800.295064168986	198.978979876216	566.797440765416	642.544129733734	44.983521326441	536.841063728554	814.801100138632	96.115218125908	573.796211812134	724.627135367384	37.363693158132	612.251827432904	933.290401896668	39.683703983170	605.319677087791	1044.372955350372	38.837096538266	387.367888862164	1116.709442929667	40.635518898984	305.366669929598	1190.224613293471	114.304860773443	325.299306332854	1322.289369294696	79.112307469137	296.712067644991	733.471252382522	1127.643480141077	227.110667177290	652.316592774467	880.869667884090	221.980061905910	1142.568598597192	1114.779168885790	728.593893314138	1325.050731406190	1237.235727038963	612.999848116119	
125	13.663714285714	763.193941336225	999.575469990018	502.496465658181	925.259106993143	1418.860356603637	302.903265236733	1052.183595990597	1342.589753667836	443.953413452643	1003.018531057693	1424.156897758065	627.409165260779	955.360777577950	1478.251917442757	454.584082917964	993.597146405476	925.456899471470	598.794253351788	958.899490090780	943.074379375816	326.208102502968	983.031997107815	712.683856630577	572.811387899096	875.894188369175	622.279955304200	636.495009446307	930.842596395297	554.999411142511	554.242038477737	907.594442381805	468.436213360497	557.993829129193	1036.544840416653	766.036308336479	355.558716782795	982.343174457626	633.157862627735	285.538328494295	1089.742227541916	578.355461749113	342.778564058186	1114.517203655200	512.071641714032	343.089018881467	1099.177479560138	438.070358896015	334.451457745357	1031.183339851675	306.938439338211	290.231791734732	1120.201440911121	210.048126306215	345.013891516109	863.257291192956	386.696088935046	565.977866565444	775.339212558588	298.347640191185	631.595907012481	794.178882180073	198.311738977538	566.177167734256	634.334596259896	45.843168434163	537.017343769720	806.881207948111	96.172525095260	573.769685476623	716.493019002595	37.704398064330	612.362753157686	925.176820764682	39.405953137234	605.400338902006	1035.470836439957	38.115225502800	388.801027225637	1108.305133181407	38.534706275668	307.081417061258	1183.958188907504	109.430488356187	328.384408407115	1315.350569000669	70.252761294665	300.231369539222	734.201224073013	1124.733535190811	225.139923605327	654.248834218367	877.459288639095	220.629700374476	1144.083157150990	1114.455427835689	724.649304675516	1317.242292385779	1246.734978752343	606.664562457241	
126	13.675357142857	764.148193311957	998.113321324105	499.815575630739	925.034672916529	1417.174959832273	299.691847133013	1052.278369780621	1341.658150766951	440.944060983066	1002.678427116641	1423.423991378448	624.257522432894	955.016752640648	1477.133738152846	451.202062988844	994.579554412491	924.057284583099	596.619680145087	960.486971950136	941.807908060640	324.069380387483	983.882121840324	711.091409347714	571.086790268038	876.262013826377	620.886872256282	634.449163804169	931.383437358155	553.195082882725	552.530774644638	907.612514019082	465.657343815473	556.421738600101	1038.217876582762	764.084341395048	354.294161738087	982.698766284214	631.661455853907	285.072773067114	1089.678072585577	576.428084013968	342.818957402281	1113.008983848260	509.285753459170	343.906295877589	1097.288297891342	435.161240670895	334.979884542753	1028.142835184788	304.819067157045	290.377506687004	1115.141959275204	206.973191013331	346.423136549400	861.247151243025	384.815827719278	564.519216942012	771.718510831123	298.399870636726	630.610361954318	788.428428908189	197.841199923392	565.607078037304	626.188853746007	47.286524386853	537.249841665512	799.181941481158	96.284605818609	573.812545759309	708.407450945084	38.316455958518	612.497045046227	917.076441575742	39.086939043415	605.474459771673	1026.462236885502	37.673063813613	389.689172239072	1099.767672103364	36.950470080720	308.235260936773	1177.344808377666	105.292301316397	330.943089728015	1308.122805648011	62.537149545933	303.178400619029	735.728849689314	1121.425616098152	222.899996628365	657.448974347469	873.480098115378	218.988483487003	1145.058439902501	1113.862382666385	720.883115811546	1309.244478841149	1254.703657078667	600.740077729621	
127	13.687000000000	764.985654149173	996.944170522451	497.170877693690	924.931242565375	1415.747206814956	296.415199867626	1052.424494030643	1340.931617527810	437.898707205537	1002.418705136296	1422.957173467280	621.055919233671	954.854386042530	1476.296662219082	447.732912087940	995.460599806860	922.943592924749	594.354775320016	961.899714581896	940.936355742368	321.820742836280	985.066948931950	709.811354371704	569.264770011279	877.251463381088	619.560129407329	632.284413012496	932.831347918880	551.535085665694	550.774912571395	908.724202270368	462.777177474644	554.993152379939	1039.871210376100	762.723172249100	352.903944502211	983.310266811131	630.850096101672	284.236152246157	1089.790939170134	575.145531276185	342.538230495015	1111.729871096144	507.176859372974	344.264567678356	1095.631344596525	432.880217373893	335.097752949884	1025.388690679785	303.366583361340	289.856142852022	1110.160507614109	204.505687350333	347.334222034145	860.051331033835	383.014753874337	563.150737848240	768.641176344256	298.818228593222	629.601253377149	783.137220416103	197.675782805089	565.133973978402	618.179130933638	49.509622653791	537.536020920251	791.790649418343	96.479677917774	573.948312704462	700.408462004952	39.312260542782	612.650998851576	908.986110551523	38.732649132295	605.531925121376	1017.594268057190	37.475143561699	390.110574322359	1091.301080955293	35.869908574798	308.875904884416	1170.474026875002	102.044036502098	332.877367514749	1300.729474140384	56.334872681463	305.424551398112	738.049965670264	1117.854658070867	220.399093316397	661.943836426263	869.068780449650	217.044061455366	1145.362746480263	1113.062583829728	717.328025640983	1301.168405478790	1261.169904383875	595.200444541380	
128	13.698642857143	765.690945085393	996.148923141947	494.587164112614	924.934014239496	1414.660462288606	293.112287347091	1052.603539074037	1340.475093854893	434.840605631223	1002.259201712307	1422.838502367127	617.820042403746	954.868086674376	1475.806054376214	444.216917940980	996.204538056811	922.194934364658	591.990794856225	963.086533869622	940.529221542149	319.445133958208	986.557360479215	708.924638671022	567.311713490552	878.905192865688	618.361551885059	630.037365154624	935.232795404070	550.100343968886	548.995810221439	911.010272439296	459.882539703128	553.801676432073	1041.430016168349	762.022770323921	351.331379373223	984.079288662161	630.720436191109	283.022046698311	1089.961267074988	574.481349898370	341.860254815983	1110.590017784729	505.742695299412	344.100628717970	1094.103888868616	431.226394063302	334.798701216029	1022.806001673155	302.561465532138	288.738409164624	1105.212781873542	202.662641338471	347.762926923146	859.768813793650	381.378332997959	561.953584720497	766.188260319545	299.719484498917	628.601637036532	778.416312926023	197.925569078741	564.802134773373	610.408947890513	52.717551004292	537.863269694692	784.803284888671	96.797754575359	574.194297329213	692.552727962266	40.823816927541	612.815809808309	900.906968241834	38.348342555285	605.564150953102	1008.987267449030	37.464289763060	390.165510192361	1083.001601504212	35.228642333543	309.087895281400	1163.384579832848	99.716789014181	334.169374730666	1293.230365059080	51.785989658803	306.939514202068	741.138991226688	1114.161962690374	217.650379212258	667.764076335679	864.372784740569	214.788102091836	1144.856540928122	1112.132455557918	714.022496369456	1293.104503864293	1266.165905147431	590.012236064224	
129	13.710285714286	766.257950891200	995.775656838819	492.060088325255	925.018133044636	1413.971867118366	289.820230924810	1052.788991282286	1340.336942263249	431.795640063732	1002.193930788425	1423.121996194825	614.568869430389	955.027928139777	1475.700487579848	440.697851255771	996.783531398080	921.864189050936	589.526176524799	964.029553738202	940.614474457176	316.936850677973	988.340354633609	708.493408126232	565.212853301020	881.267473923621	617.343571606875	627.754300399930	938.630499450569	548.963458641304	547.223795899161	914.533686072514	457.070097701821	552.928783735197	1042.825690614044	761.965534261609	349.514645910282	984.837257304112	631.179328467489	281.467874508088	1090.022325233634	574.318686340450	340.742627707129	1109.441272746437	504.891353299335	343.414760397245	1092.543561383155	430.124105969178	334.122782000959	1020.210900301349	302.311293463472	287.166061812807	1100.202056059242	201.389208162332	347.775465435535	860.500449100604	379.985043532333	560.996542846323	764.462797221530	301.209063387807	627.640379309091	774.389443169838	198.695154855030	564.644639257793	603.014448981060	57.111206531711	538.207074584292	778.319656083058	97.294770912219	574.556476661783	684.918186712405	43.000117632182	612.976428109180	892.848211670062	37.937104119131	605.565999762953	1000.662906949385	37.574999309108	389.961961435611	1074.885242401807	34.931175509545	308.977033812959	1156.091115439677	98.235998326227	334.874873944301	1285.646070747694	48.818168535422	307.781650609520	744.950617746180	1110.481737773533	214.668869225726	674.943093545970	859.540210461974	212.216975500686	1143.402635926798	1111.155501993153	711.010442102657	1285.127159343604	1269.719037278153	585.141693001530	
